<svg xmlns="http://www.w3.org/2000/svg" xmlns:xlink="http://www.w3.org/1999/xlink" width="1024" zoomAndPan="magnify" viewBox="0 0 768 767.999994" height="1024" preserveAspectRatio="xMidYMid meet" version="1.0"><defs><g/><clipPath id="b1454be7ba"><path d="M 54 0 L 714 0 L 714 768 L 54 768 Z M 54 0 " clip-rule="nonzero"/></clipPath><clipPath id="b57b5cd4ae"><path d="M 384 0 L 714 192 L 714 576 L 384 768 L 54 576 L 54 192 L 384 0 " clip-rule="nonzero"/></clipPath></defs><g clip-path="url(#b1454be7ba)"><g clip-path="url(#b57b5cd4ae)"><path fill="#000000" d="M 54 0 L 714 0 L 714 768 L 54 768 Z M 54 0 " fill-opacity="1" fill-rule="nonzero"/><path stroke-linecap="butt" transform="matrix(0.75, 0, 0, 0.75, 54, 0.00002)" fill="none" stroke-linejoin="miter" d="M 440.000021 -0.0000266667 L 880.000043 255.999986 L 880.000043 768.000011 L 440.000021 1024.000024 L -0.0000004375 768.000011 L -0.0000004375 255.999986 L 440.000021 -0.0000266667 " stroke="#000000" stroke-width="30" stroke-opacity="1" stroke-miterlimit="4"/></g></g><g fill="#f9688d" fill-opacity="1"><g transform="translate(168.574917, 486.088458)"><g><path d="M -13.144531 -319.546875 C -14.898438 -320.128906 -16.066406 -321.007812 -16.648438 -321.589844 C -17.523438 -322.175781 -19.863281 -322.757812 -23.367188 -323.34375 L -25.121094 -323.34375 C -25.996094 -323.050781 -26.582031 -322.757812 -27.164062 -322.757812 C -28.332031 -322.175781 -29.207031 -321.589844 -30.378906 -321.007812 C -31.546875 -320.421875 -32.714844 -319.546875 -33.296875 -318.960938 C -34.464844 -318.085938 -35.050781 -317.210938 -35.636719 -316.042969 C -36.511719 -314.871094 -37.09375 -313.703125 -37.386719 -312.535156 L -37.972656 -309.03125 L -37.972656 -308.445312 C -37.972656 -307.277344 -37.972656 -306.109375 -37.679688 -305.234375 C -37.386719 -304.066406 -36.804688 -302.898438 -36.21875 -301.730469 C -35.636719 -300.558594 -35.050781 -299.683594 -34.464844 -298.515625 C 6.425781 -240.972656 37.386719 -197.746094 58.125 -169.121094 C 58.125 -168.828125 58.125 -168.828125 58.417969 -168.828125 C 74.773438 -144.875 87.335938 -126.765625 95.511719 -114.792969 C 67.765625 -74.484375 47.027344 -44.105469 33.296875 -24.242188 C 32.714844 -23.660156 32.421875 -23.074219 32.128906 -22.78125 C 31.546875 -22.199219 31.253906 -21.613281 31.253906 -21.03125 C 30.667969 -19.863281 30.378906 -18.695312 30.378906 -17.523438 C 29.792969 -16.355469 29.792969 -14.898438 30.085938 -13.726562 C 30.085938 -12.558594 30.085938 -11.390625 30.667969 -10.222656 C 30.960938 -9.054688 31.546875 -7.886719 32.128906 -6.71875 L 34.464844 -3.796875 C 35.34375 -2.921875 36.511719 -2.335938 37.679688 -1.753906 C 38.554688 -1.167969 39.722656 -0.585938 40.890625 -0.292969 C 42.0625 0 43.519531 0.292969 44.691406 0.292969 C 45.859375 0.292969 47.027344 0.292969 48.488281 -0.292969 C 49.65625 -0.585938 50.824219 -1.167969 51.992188 -1.753906 C 52.867188 -2.335938 53.746094 -2.921875 54.914062 -3.796875 C 55.496094 -4.382812 56.375 -5.550781 57.25 -6.71875 C 82.371094 -42.9375 101.0625 -70.394531 113.914062 -88.503906 C 130.5625 -63.96875 143.125 -45.859375 151.59375 -33.589844 C 210.597656 54.621094 255.285156 120.925781 285.078125 164.738281 C 285.078125 165.324219 285.371094 165.90625 285.957031 166.492188 C 286.246094 167.074219 286.539062 167.660156 287.125 167.953125 L 290.046875 170.289062 C 290.921875 170.871094 292.089844 171.457031 293.257812 171.75 C 294.425781 172.332031 295.59375 172.625 297.054688 172.625 L 298.222656 172.625 C 298.808594 172.625 299.683594 172.625 300.558594 172.332031 C 301.730469 172.332031 302.898438 172.039062 304.066406 171.457031 C 305.234375 170.871094 306.109375 170.289062 307.277344 169.410156 C 308.15625 168.828125 309.03125 167.953125 309.90625 166.785156 C 310.492188 165.90625 311.367188 164.738281 311.953125 163.570312 C 312.242188 162.402344 312.535156 161.234375 312.828125 160.066406 C 312.828125 159.480469 313.121094 158.605469 313.121094 157.726562 C 313.121094 157.4375 312.828125 156.851562 312.828125 156.269531 C 312.828125 155.101562 312.535156 153.929688 311.953125 152.761719 C 311.367188 151.59375 311.074219 150.425781 310.492188 149.257812 C 250.90625 60.753906 206.214844 -5.839844 176.421875 -50.238281 C 174.667969 -52.867188 167.953125 -62.214844 156.851562 -78.570312 C 145.753906 -94.636719 137.28125 -106.613281 131.734375 -114.5 C 155.683594 -149.257812 173.5 -175.253906 185.476562 -192.777344 C 185.769531 -193.070312 186.0625 -193.65625 186.644531 -194.238281 C 186.9375 -194.824219 187.230469 -195.40625 187.230469 -195.992188 C 187.523438 -197.160156 187.8125 -198.328125 188.105469 -199.789062 C 188.105469 -200.957031 188.398438 -202.125 188.398438 -203.292969 C 188.105469 -204.460938 187.8125 -205.632812 187.230469 -206.800781 C 186.644531 -207.96875 186.0625 -209.136719 185.476562 -210.304688 C 184.601562 -211.179688 183.722656 -212.058594 182.847656 -212.933594 C 181.679688 -213.519531 180.804688 -214.394531 179.925781 -214.976562 C 178.757812 -215.269531 177.589844 -215.5625 176.421875 -215.855469 C 174.960938 -215.855469 173.792969 -216.144531 172.625 -216.144531 L 171.75 -216.144531 C 171.164062 -216.144531 170.582031 -215.855469 169.996094 -215.855469 C 169.410156 -215.855469 168.828125 -215.5625 168.242188 -215.269531 C 167.074219 -214.6875 165.90625 -214.101562 165.03125 -213.519531 C 163.863281 -212.933594 162.984375 -212.058594 162.109375 -211.179688 C 140.496094 -179.925781 124.136719 -156.558594 113.621094 -140.789062 C 99.601562 -160.648438 89.378906 -175.839844 82.660156 -186.0625 C 81.785156 -186.9375 66.886719 -207.675781 38.265625 -247.984375 C 9.640625 -288.292969 -6.71875 -311.074219 -10.808594 -316.625 C -11.097656 -317.210938 -11.390625 -317.792969 -11.683594 -318.378906 C -12.269531 -318.671875 -12.558594 -318.960938 -13.144531 -319.546875 Z M -13.144531 -319.546875 "/></g></g><g transform="translate(407.796481, 486.088458)"><g><path d="M 46.148438 -215.5625 L 44.980469 -215.5625 C 44.398438 -215.269531 44.105469 -215.269531 44.691406 -215.5625 L 44.980469 -215.5625 L 43.519531 -215.269531 C 42.351562 -214.976562 41.476562 -214.6875 40.890625 -214.6875 C 39.722656 -214.101562 38.847656 -213.519531 37.679688 -212.933594 C 36.511719 -212.058594 35.636719 -211.179688 34.757812 -210.304688 C 33.882812 -209.429688 33.296875 -208.550781 32.714844 -207.382812 L 31.546875 -203.878906 C 31.253906 -167.953125 31.253906 -141.078125 31.253906 -123.261719 L -4.964844 -123.261719 C -5.550781 -123.261719 -6.132812 -122.96875 -6.71875 -122.96875 C -7.886719 -122.386719 -9.054688 -122.09375 -10.222656 -121.507812 C -11.390625 -120.925781 -12.269531 -120.050781 -13.144531 -119.464844 C -14.3125 -118.589844 -14.898438 -117.710938 -15.480469 -116.542969 C -16.355469 -115.375 -16.941406 -114.5 -17.234375 -113.332031 C -17.816406 -112.164062 -18.109375 -110.992188 -18.109375 -109.824219 L -18.109375 -108.367188 C -18.109375 -107.488281 -18.109375 -106.613281 -17.816406 -106.027344 C -17.816406 -104.859375 -17.523438 -103.691406 -16.941406 -102.523438 C -16.355469 -101.355469 -15.773438 -100.1875 -14.898438 -99.308594 C -14.3125 -98.140625 -13.4375 -97.265625 -12.269531 -96.683594 C -11.390625 -95.804688 -10.222656 -95.222656 -9.054688 -94.636719 C -7.886719 -94.054688 -6.71875 -93.761719 -5.550781 -93.761719 C -4.382812 -93.46875 -2.921875 -93.46875 -1.753906 -93.46875 L 31.253906 -93.46875 L 31.253906 -13.4375 C 31.253906 -12.558594 31.253906 -11.976562 31.546875 -11.683594 C 32.128906 -10.515625 32.421875 -9.347656 33.007812 -8.179688 C 33.589844 -7.011719 34.175781 -5.839844 35.050781 -4.964844 L 37.972656 -2.628906 C 39.140625 -2.042969 40.308594 -1.460938 41.476562 -1.167969 C 42.644531 -0.585938 43.8125 -0.292969 44.980469 -0.292969 C 46.148438 -0.292969 47.609375 -0.292969 48.777344 -0.585938 C 75.066406 -0.292969 94.636719 -0.292969 107.78125 -0.292969 C 117.128906 -0.292969 125.597656 -2.042969 133.484375 -5.839844 C 141.078125 -9.347656 147.503906 -14.3125 152.472656 -20.445312 C 157.4375 -26.289062 161.234375 -33.007812 163.570312 -40.308594 C 165.613281 -47.609375 166.785156 -54.914062 166.785156 -62.507812 C 166.785156 -69.808594 165.613281 -77.113281 163.277344 -84.707031 C 160.941406 -91.714844 157.144531 -98.433594 152.472656 -104.277344 C 151.011719 -105.738281 149.257812 -106.90625 147.503906 -108.074219 L 142.246094 -111.578125 C 143.417969 -112.746094 144.585938 -113.914062 146.042969 -115.082031 C 147.214844 -115.960938 148.382812 -117.128906 149.257812 -118.589844 C 153.347656 -124.722656 155.976562 -131.441406 157.4375 -138.449219 C 158.898438 -145.460938 159.1875 -152.472656 158.605469 -159.480469 C 157.144531 -173.5 151.011719 -186.351562 140.496094 -198.035156 C 129.980469 -209.71875 115.960938 -215.5625 98.726562 -215.5625 Z M 61.046875 -123.261719 L 61.046875 -185.476562 L 98.726562 -185.476562 C 108.367188 -185.476562 115.667969 -182.554688 120.632812 -177.007812 C 125.304688 -171.164062 127.933594 -164.15625 129.105469 -156.269531 L 129.105469 -152.472656 C 129.105469 -149.550781 128.8125 -147.214844 128.519531 -144.875 C 127.351562 -141.078125 126.183594 -137.867188 124.429688 -134.945312 C 122.386719 -132.023438 120.050781 -129.394531 117.421875 -127.644531 C 114.5 -125.597656 110.992188 -124.136719 106.320312 -123.261719 Z M 61.046875 -30.085938 L 61.046875 -93.46875 L 108.65625 -93.46875 C 108.65625 -93.46875 109.535156 -93.46875 110.992188 -94.054688 C 110.117188 -93.761719 109.242188 -93.761719 108.367188 -93.761719 C 107.195312 -93.46875 107.195312 -93.46875 107.78125 -93.46875 L 109.242188 -93.46875 C 109.242188 -93.46875 110.117188 -93.46875 111.578125 -93.761719 C 115.082031 -93.761719 118.589844 -92.882812 121.800781 -91.425781 C 124.722656 -89.671875 127.351562 -87.625 129.6875 -85 C 132.023438 -82.078125 133.777344 -78.863281 134.945312 -75.066406 C 136.113281 -70.976562 136.988281 -66.597656 136.988281 -62.507812 C 136.988281 -58.125 136.40625 -54.035156 135.238281 -49.949219 C 133.777344 -45.859375 132.023438 -42.351562 129.6875 -39.433594 C 127.058594 -36.511719 124.136719 -34.175781 120.925781 -32.714844 C 117.421875 -30.960938 113.039062 -30.085938 107.78125 -30.085938 Z M 61.046875 -30.085938 "/></g></g></g></svg>